# xmcd
#
# Track frame offsets:
#	150
#	10454
#	19875
#	30947
#	43907
#	58459
#	71650
#	86401
#	98889
#	108534
#	118186
#
# Disc length: 1741 seconds
#
# Revision: 1
# Processed by: cddbd v1.5.2PL0 Copyright (c) Steve Scherf et al.
# Submitted via: audiograbber 1.83.01
#
DISCID=9706cb0b
DTITLE=David Bristow - Junkyard Blues
DYEAR=2005
DGENRE=Blues
TTITLE0=Christmas Day Blues
TTITLE1=Same Old Story
TTITLE2=Ain't Gonna Help You Now
TTITLE3=What's Going On With You
TTITLE4=Look Now, Child
TTITLE5=Didn't Get No Sleep Last Night
TTITLE6=Nobody But You
TTITLE7=Old Blind dog
TTITLE8=Jug Of Whisky
TTITLE9=Rosie Mae's Blues
TTITLE10=Easy Going Mama
EXTD=XEN502\nAscott House Farm, Osfordshire\nmix by Richie Haines
EXTT0=
EXTT1=
EXTT2=
EXTT3=
EXTT4=
EXTT5=
EXTT6=
EXTT7=
EXTT8=
EXTT9=
EXTT10=
PLAYORDER=
